<svg width="153" height="66" viewBox="0 0 153 66" fill="none" xmlns="http://www.w3.org/2000/svg">
<path fill-rule="evenodd" clip-rule="evenodd" d="M45.8906 24.783C49.3641 28.757 56.9419 25.158 54.4826 19.861C52.8405 16.305 50.3802 17.13 48.6239 18.041C45.1076 19.82 44.4426 23.088 45.8906 24.783ZM40.2527 22.002C42.5132 26.868 35.5557 30.173 32.3637 26.523C31.0337 24.968 31.6454 21.963 34.8716 20.33C36.4861 19.494 38.7466 18.734 40.2527 22.002ZM146.919 50.7473L146.919 50.7474L146.879 50.751V50.807C144.581 68.171 121.964 71.038 121.401 57.406C121.145 51.239 132.431 49.456 143.662 48.318C143.861 42.9112 140.27 44.1234 135.908 45.5959C131.323 47.1436 125.887 48.979 123.104 43.717C118.329 34.692 137.025 25.779 139.019 27.615C145.063 33.1766 142.332 34.2063 137.886 35.8824L137.707 35.95C128.678 39.36 132.198 40.057 133.415 39.676C140.617 37.423 147.083 38.636 147.032 47.993C147.617 47.9419 148.19 47.9024 148.758 47.8634L148.758 47.8634C149.379 47.8206 149.992 47.7784 150.606 47.722C152.8 47.507 152.953 50.157 150.453 50.374C149.291 50.5331 148.081 50.6425 146.919 50.7473ZM143.304 51.13C134.624 52.158 127.118 53.566 127.936 56.485C129.569 62.058 140.853 63.303 143.304 51.13ZM112.259 34.23C111.483 39.88 111.503 45.881 112.152 45.918C112.47 45.937 114.344 45.572 114.948 44.411C115.528 43.2932 116.068 41.754 116.633 40.1405C117.773 36.8907 119.018 33.3397 120.91 32.324C123.613 30.873 113.215 27.279 112.259 34.23ZM27.6734 62.666C20.1393 68.004 14.1456 66.825 16.055 51.818C17.4345 40.914 15.1531 40.297 13.0848 42.376C10.3781 45.073 8.68178 52.099 8.62851 58.788C8.87418 60.3951 9.19295 61.9889 9.5837 63.564C9.90146 65.194 4.91524 66.879 1.99734 64.575C0.990769 63.79 0.194458 55.865 0.194458 45.131C0.194458 36.307 1.30853 30.236 2.31605 29.956C9.95474 27.765 11.1754 31.304 9.53042 37.937C8.87622 40.5343 8.43224 43.185 8.20324 45.861C9.79491 41.197 12.0763 37.376 14.6755 35.688C21.731 31.024 27.6192 33.215 26.5051 42.489C24.5956 59.069 24.4368 61.316 26.134 60.024C28.2566 58.45 29.6351 61.262 27.6734 62.666ZM39.9301 65.142C45.0772 65.761 50.4344 64.074 52.5037 60.59C54.2533 57.667 52.8215 56.655 50.8055 59.015C46.5623 64.131 42.1592 61.826 40.3031 56.655L40.7807 56.487C49.7447 52.721 55.3674 42.493 51.8139 36.704C46.9324 28.723 31.6559 35.86 29.7455 47.045C27.9949 57.386 32.5569 64.299 39.9301 65.142ZM39.56 53.172C45.1304 49.013 46.9866 39.852 45.4482 37.267C43.8042 34.57 40.6208 38.784 39.5068 49.013C39.4012 50.474 39.4012 51.878 39.56 53.172ZM73.5703 51.051C75.533 50.376 77.7269 48.499 79.2463 45.992C79.6715 45.289 80.0293 44.657 80.5202 43.012C80.4608 43.2111 80.4835 43.1204 80.54 42.8953C80.6427 42.4863 80.8568 41.6335 80.8912 41.271C80.8912 41.215 80.9445 40.932 80.9978 40.822C82.1632 33.965 78.1331 30.086 72.5618 33.009C69.4327 34.638 65.5605 40.822 63.2268 47.51C63.81 43.912 64.8175 40.484 65.9316 37.111C67.841 31.154 64.2876 28.119 58.1873 29.862C57.1788 30.143 55.3226 37.955 55.3226 46.779C55.3226 57.513 55.8535 63.695 56.861 64.483C59.778 66.843 64.9764 65.101 64.4465 63.527C64.2409 62.9291 64.0853 62.3284 63.9304 61.7303L63.9156 61.673C63.9156 61.504 63.9156 61.335 63.8633 61.167C62.8538 54.196 66.7279 44.532 69.9103 41.946C70.7589 41.215 71.9253 41.721 72.0852 43.632C69.486 44.981 68.6373 47.342 68.6373 48.353C68.6373 51.107 71.2889 51.781 73.5703 51.051Z" fill="black"/>
<path fill-rule="evenodd" clip-rule="evenodd" d="M107.898 27.161C107.44 29.6539 107.086 32.1666 106.838 34.692C105.83 44.752 106.255 53.688 107.421 57.678C108.111 59.815 110.71 62.624 113.203 59.701C115.908 56.498 118.88 58.352 115.272 62.117C113.045 64.422 108.908 65.995 104.769 65.545C101.798 65.152 99.9951 63.13 98.9334 60.04C98.511 60.938 98.0324 61.725 97.4492 62.342C95.4332 64.535 92.992 65.772 89.8629 65.434C83.5485 64.704 79.8371 57.511 81.5867 47.281C83.4438 36.49 92.3555 32.556 97.5015 35.424C97.6081 34.075 97.7137 32.725 97.8203 31.32C97.8464 31.1795 97.8595 31.039 97.8726 30.8986L97.8726 30.8985L97.8726 30.8984C97.8857 30.7579 97.8988 30.6175 97.9249 30.477C96.3595 30.8387 94.7854 31.1575 93.2041 31.433C70.3946 35.423 78.2464 15.864 83.8158 10.75C90.1292 5.01699 90.818 8.89499 88.8553 10.188C85.3542 12.548 83.8158 26.093 93.8416 26.093C95.4865 26.093 97.0249 25.981 98.5623 25.812C101.693 7.48999 111.188 -1.39101 118.88 1.53199C127.42 4.79199 126.519 19.067 107.898 27.161ZM97.5016 51.554C97.2884 48.012 97.2884 44.022 97.3427 39.918C97.3427 39.6576 97.3568 39.3974 97.3705 39.1449L97.3705 39.1448C97.3834 38.9067 97.396 38.6754 97.396 38.457C94.2126 36.939 91.0835 42.11 90.2862 49.249C89.3862 57.622 92.9387 62.062 94.9556 60.04C96.494 58.409 97.2894 53.237 97.5016 51.554ZM120.417 8.38899C118.719 5.74699 112.514 8.95099 108.907 22.721C117.978 18.167 121.585 10.299 120.417 8.38899Z" fill="black"/>
</svg>
